<svg width="261" height="202" viewBox="0 0 261 202" fill="none" xmlns="http://www.w3.org/2000/svg">
<g clip-path="url(#clip0)">
<path d="M63.8449 127.008H42.4395C41.2146 127.008 40.2217 128.239 40.2217 129.759V137.015C40.2217 138.534 41.2146 139.766 42.4395 139.766H63.8449C65.0698 139.766 66.0628 138.534 66.0628 137.015V129.759C66.0628 128.239 65.0698 127.008 63.8449 127.008Z" fill="#475B72"/>
<path d="M89.686 127.008H68.2806C67.0557 127.008 66.0627 128.239 66.0627 129.759V137.015C66.0627 138.534 67.0557 139.766 68.2806 139.766H89.686C90.9109 139.766 91.9038 138.534 91.9038 137.015V129.759C91.9038 128.239 90.9109 127.008 89.686 127.008Z" fill="#475B72"/>
<path opacity="0.1" d="M89.686 127.008H68.2806C67.0557 127.008 66.0627 128.239 66.0627 129.759V137.015C66.0627 138.534 67.0557 139.766 68.2806 139.766H89.686C90.9109 139.766 91.9038 138.534 91.9038 137.015V129.759C91.9038 128.239 90.9109 127.008 89.686 127.008Z" fill="black"/>
<path d="M115.527 127.008H94.1216C92.8968 127.008 91.9038 128.239 91.9038 129.759V137.015C91.9038 138.534 92.8968 139.766 94.1216 139.766H115.527C116.752 139.766 117.745 138.534 117.745 137.015V129.759C117.745 128.239 116.752 127.008 115.527 127.008Z" fill="#475B72"/>
<path d="M141.368 127.008H119.963C118.738 127.008 117.745 128.239 117.745 129.759V137.015C117.745 138.534 118.738 139.766 119.963 139.766H141.368C142.593 139.766 143.586 138.534 143.586 137.015V129.759C143.586 128.239 142.593 127.008 141.368 127.008Z" fill="#475B72"/>
<path opacity="0.1" d="M141.368 127.008H119.963C118.738 127.008 117.745 128.239 117.745 129.759V137.015C117.745 138.534 118.738 139.766 119.963 139.766H141.368C142.593 139.766 143.586 138.534 143.586 137.015V129.759C143.586 128.239 142.593 127.008 141.368 127.008Z" fill="black"/>
<path d="M167.209 127.008H145.804C144.579 127.008 143.586 128.239 143.586 129.759V137.015C143.586 138.534 144.579 139.766 145.804 139.766H167.209C168.434 139.766 169.427 138.534 169.427 137.015V129.759C169.427 128.239 168.434 127.008 167.209 127.008Z" fill="#475B72"/>
<path d="M193.051 127.008H171.645C170.42 127.008 169.427 128.239 169.427 129.759V137.015C169.427 138.534 170.42 139.766 171.645 139.766H193.051C194.275 139.766 195.268 138.534 195.268 137.015V129.759C195.268 128.239 194.275 127.008 193.051 127.008Z" fill="#475B72"/>
<path opacity="0.1" d="M193.051 127.008H171.645C170.42 127.008 169.427 128.239 169.427 129.759V137.015C169.427 138.534 170.42 139.766 171.645 139.766H193.051C194.275 139.766 195.268 138.534 195.268 137.015V129.759C195.268 128.239 194.275 127.008 193.051 127.008Z" fill="black"/>
<path d="M171.645 127.008H193.05C194.275 127.008 195.268 125.776 195.268 124.257V117.001C195.268 115.481 194.275 114.25 193.05 114.25H171.645C170.42 114.25 169.427 115.481 169.427 117.001V124.257C169.427 125.776 170.42 127.008 171.645 127.008Z" fill="#475B72"/>
<path d="M145.804 127.008H167.209C168.434 127.008 169.427 125.776 169.427 124.257V117.001C169.427 115.481 168.434 114.25 167.209 114.25H145.804C144.579 114.25 143.586 115.481 143.586 117.001V124.257C143.586 125.776 144.579 127.008 145.804 127.008Z" fill="#475B72"/>
<path opacity="0.1" d="M145.804 127.008H167.209C168.434 127.008 169.427 125.776 169.427 124.257V117.001C169.427 115.481 168.434 114.25 167.209 114.25H145.804C144.579 114.25 143.586 115.481 143.586 117.001V124.257C143.586 125.776 144.579 127.008 145.804 127.008Z" fill="black"/>
<path d="M119.963 127.008H141.368C142.593 127.008 143.586 125.776 143.586 124.257V117.001C143.586 115.481 142.593 114.25 141.368 114.25H119.963C118.738 114.25 117.745 115.481 117.745 117.001V124.257C117.745 125.776 118.738 127.008 119.963 127.008Z" fill="#475B72"/>
<path d="M94.1216 127.008H115.527C116.752 127.008 117.745 125.776 117.745 124.257V117.001C117.745 115.481 116.752 114.25 115.527 114.25H94.1216C92.8967 114.25 91.9038 115.481 91.9038 117.001V124.257C91.9038 125.776 92.8967 127.008 94.1216 127.008Z" fill="#475B72"/>
<path opacity="0.1" d="M94.1216 127.008H115.527C116.752 127.008 117.745 125.776 117.745 124.257V117.001C117.745 115.481 116.752 114.25 115.527 114.25H94.1216C92.8967 114.25 91.9038 115.481 91.9038 117.001V124.257C91.9038 125.776 92.8967 127.008 94.1216 127.008Z" fill="black"/>
<path d="M68.2805 127.008H89.686C90.9109 127.008 91.9038 125.776 91.9038 124.257V117.001C91.9038 115.481 90.9109 114.25 89.686 114.25H68.2805C67.0557 114.25 66.0627 115.481 66.0627 117.001V124.257C66.0627 125.776 67.0557 127.008 68.2805 127.008Z" fill="#475B72"/>
<path d="M42.4395 127.008H63.8449C65.0698 127.008 66.0627 125.776 66.0627 124.257V117.001C66.0627 115.481 65.0698 114.25 63.8449 114.25H42.4395C41.2146 114.25 40.2217 115.481 40.2217 117.001V124.257C40.2217 125.776 41.2146 127.008 42.4395 127.008Z" fill="#475B72"/>
<path opacity="0.1" d="M42.4395 127.008H63.8449C65.0698 127.008 66.0627 125.776 66.0627 124.257V117.001C66.0627 115.481 65.0698 114.25 63.8449 114.25H42.4395C41.2146 114.25 40.2217 115.481 40.2217 117.001V124.257C40.2217 125.776 41.2146 127.008 42.4395 127.008Z" fill="black"/>
<path d="M63.8449 101.491H42.4395C41.2146 101.491 40.2217 102.723 40.2217 104.242V111.499C40.2217 113.018 41.2146 114.25 42.4395 114.25H63.8449C65.0698 114.25 66.0628 113.018 66.0628 111.499V104.242C66.0628 102.723 65.0698 101.491 63.8449 101.491Z" fill="#475B72"/>
<path d="M89.686 101.491H68.2806C67.0557 101.491 66.0627 102.723 66.0627 104.242V111.499C66.0627 113.018 67.0557 114.25 68.2806 114.25H89.686C90.9109 114.25 91.9038 113.018 91.9038 111.499V104.242C91.9038 102.723 90.9109 101.491 89.686 101.491Z" fill="#475B72"/>
<path opacity="0.1" d="M89.686 101.491H68.2806C67.0557 101.491 66.0627 102.723 66.0627 104.242V111.499C66.0627 113.018 67.0557 114.25 68.2806 114.25H89.686C90.9109 114.25 91.9038 113.018 91.9038 111.499V104.242C91.9038 102.723 90.9109 101.491 89.686 101.491Z" fill="black"/>
<path d="M115.527 101.491H94.1216C92.8968 101.491 91.9038 102.723 91.9038 104.242V111.499C91.9038 113.018 92.8968 114.25 94.1216 114.25H115.527C116.752 114.25 117.745 113.018 117.745 111.499V104.242C117.745 102.723 116.752 101.491 115.527 101.491Z" fill="#475B72"/>
<path d="M141.368 101.491H119.963C118.738 101.491 117.745 102.723 117.745 104.242V111.499C117.745 113.018 118.738 114.25 119.963 114.25H141.368C142.593 114.25 143.586 113.018 143.586 111.499V104.242C143.586 102.723 142.593 101.491 141.368 101.491Z" fill="#475B72"/>
<path opacity="0.1" d="M141.368 101.491H119.963C118.738 101.491 117.745 102.723 117.745 104.242V111.499C117.745 113.018 118.738 114.25 119.963 114.25H141.368C142.593 114.25 143.586 113.018 143.586 111.499V104.242C143.586 102.723 142.593 101.491 141.368 101.491Z" fill="black"/>
<path d="M167.209 101.491H145.804C144.579 101.491 143.586 102.723 143.586 104.242V111.499C143.586 113.018 144.579 114.25 145.804 114.25H167.209C168.434 114.25 169.427 113.018 169.427 111.499V104.242C169.427 102.723 168.434 101.491 167.209 101.491Z" fill="#475B72"/>
<path d="M193.051 101.491H171.645C170.42 101.491 169.427 102.723 169.427 104.242V111.499C169.427 113.018 170.42 114.25 171.645 114.25H193.051C194.275 114.25 195.268 113.018 195.268 111.499V104.242C195.268 102.723 194.275 101.491 193.051 101.491Z" fill="#475B72"/>
<path opacity="0.1" d="M193.051 101.491H171.645C170.42 101.491 169.427 102.723 169.427 104.242V111.499C169.427 113.018 170.42 114.25 171.645 114.25H193.051C194.275 114.25 195.268 113.018 195.268 111.499V104.242C195.268 102.723 194.275 101.491 193.051 101.491Z" fill="black"/>
<path d="M171.645 101.491H193.05C194.275 101.491 195.268 100.26 195.268 98.7407V91.4842C195.268 89.965 194.275 88.7335 193.05 88.7335H171.645C170.42 88.7335 169.427 89.965 169.427 91.4842V98.7407C169.427 100.26 170.42 101.491 171.645 101.491Z" fill="#475B72"/>
<path d="M145.804 101.491H167.209C168.434 101.491 169.427 100.26 169.427 98.7407V91.4842C169.427 89.965 168.434 88.7335 167.209 88.7335H145.804C144.579 88.7335 143.586 89.965 143.586 91.4842V98.7407C143.586 100.26 144.579 101.491 145.804 101.491Z" fill="#475B72"/>
<path opacity="0.1" d="M145.804 101.491H167.209C168.434 101.491 169.427 100.26 169.427 98.7407V91.4842C169.427 89.965 168.434 88.7335 167.209 88.7335H145.804C144.579 88.7335 143.586 89.965 143.586 91.4842V98.7407C143.586 100.26 144.579 101.491 145.804 101.491Z" fill="black"/>
<path d="M119.963 101.491H141.368C142.593 101.491 143.586 100.26 143.586 98.7407V91.4842C143.586 89.965 142.593 88.7335 141.368 88.7335H119.963C118.738 88.7335 117.745 89.965 117.745 91.4842V98.7407C117.745 100.26 118.738 101.491 119.963 101.491Z" fill="#475B72"/>
<path d="M94.1216 101.491H115.527C116.752 101.491 117.745 100.26 117.745 98.7407V91.4842C117.745 89.965 116.752 88.7335 115.527 88.7335H94.1216C92.8967 88.7335 91.9038 89.965 91.9038 91.4842V98.7407C91.9038 100.26 92.8967 101.491 94.1216 101.491Z" fill="#475B72"/>
<path opacity="0.1" d="M94.1216 101.491H115.527C116.752 101.491 117.745 100.26 117.745 98.7407V91.4842C117.745 89.965 116.752 88.7335 115.527 88.7335H94.1216C92.8967 88.7335 91.9038 89.965 91.9038 91.4842V98.7407C91.9038 100.26 92.8967 101.491 94.1216 101.491Z" fill="black"/>
<path d="M68.2805 101.491H89.686C90.9109 101.491 91.9038 100.26 91.9038 98.7407V91.4842C91.9038 89.965 90.9109 88.7335 89.686 88.7335H68.2805C67.0557 88.7335 66.0627 89.965 66.0627 91.4842V98.7407C66.0627 100.26 67.0557 101.491 68.2805 101.491Z" fill="#475B72"/>
<path d="M42.4395 101.491H63.8449C65.0698 101.491 66.0627 100.26 66.0627 98.7407V91.4842C66.0627 89.965 65.0698 88.7335 63.8449 88.7335H42.4395C41.2146 88.7335 40.2217 89.965 40.2217 91.4842V98.7407C40.2217 100.26 41.2146 101.491 42.4395 101.491Z" fill="#475B72"/>
<path opacity="0.1" d="M42.4395 101.491H63.8449C65.0698 101.491 66.0627 100.26 66.0627 98.7407V91.4842C66.0627 89.965 65.0698 88.7335 63.8449 88.7335H42.4395C41.2146 88.7335 40.2217 89.965 40.2217 91.4842V98.7407C40.2217 100.26 41.2146 101.491 42.4395 101.491Z" fill="black"/>
<path d="M63.8449 76.5979H42.4395C41.2146 76.5979 40.2217 77.8295 40.2217 79.3487V86.6052C40.2217 88.1244 41.2146 89.3559 42.4395 89.3559H63.8449C65.0698 89.3559 66.0628 88.1244 66.0628 86.6052V79.3487C66.0628 77.8295 65.0698 76.5979 63.8449 76.5979Z" fill="#475B72"/>
<path d="M89.686 76.5979H68.2806C67.0557 76.5979 66.0627 77.8295 66.0627 79.3487V86.6052C66.0627 88.1244 67.0557 89.3559 68.2806 89.3559H89.686C90.9109 89.3559 91.9038 88.1244 91.9038 86.6052V79.3487C91.9038 77.8295 90.9109 76.5979 89.686 76.5979Z" fill="#475B72"/>
<path opacity="0.1" d="M89.686 76.5979H68.2806C67.0557 76.5979 66.0627 77.8295 66.0627 79.3487V86.6052C66.0627 88.1244 67.0557 89.3559 68.2806 89.3559H89.686C90.9109 89.3559 91.9038 88.1244 91.9038 86.6052V79.3487C91.9038 77.8295 90.9109 76.5979 89.686 76.5979Z" fill="black"/>
<path d="M115.527 76.5979H94.1216C92.8968 76.5979 91.9038 77.8295 91.9038 79.3487V86.6052C91.9038 88.1244 92.8968 89.3559 94.1216 89.3559H115.527C116.752 89.3559 117.745 88.1244 117.745 86.6052V79.3487C117.745 77.8295 116.752 76.5979 115.527 76.5979Z" fill="#475B72"/>
<path d="M141.368 76.5979H119.963C118.738 76.5979 117.745 77.8295 117.745 79.3487V86.6052C117.745 88.1244 118.738 89.3559 119.963 89.3559H141.368C142.593 89.3559 143.586 88.1244 143.586 86.6052V79.3487C143.586 77.8295 142.593 76.5979 141.368 76.5979Z" fill="#475B72"/>
<path opacity="0.1" d="M141.368 76.5979H119.963C118.738 76.5979 117.745 77.8295 117.745 79.3487V86.6052C117.745 88.1244 118.738 89.3559 119.963 89.3559H141.368C142.593 89.3559 143.586 88.1244 143.586 86.6052V79.3487C143.586 77.8295 142.593 76.5979 141.368 76.5979Z" fill="black"/>
<path d="M167.209 76.5979H145.804C144.579 76.5979 143.586 77.8295 143.586 79.3487V86.6052C143.586 88.1244 144.579 89.3559 145.804 89.3559H167.209C168.434 89.3559 169.427 88.1244 169.427 86.6052V79.3487C169.427 77.8295 168.434 76.5979 167.209 76.5979Z" fill="#475B72"/>
<path d="M193.051 76.5979H171.645C170.42 76.5979 169.427 77.8295 169.427 79.3487V86.6052C169.427 88.1244 170.42 89.3559 171.645 89.3559H193.051C194.275 89.3559 195.268 88.1244 195.268 86.6052V79.3487C195.268 77.8295 194.275 76.5979 193.051 76.5979Z" fill="#475B72"/>
<path opacity="0.1" d="M193.051 76.5979H171.645C170.42 76.5979 169.427 77.8295 169.427 79.3487V86.6052C169.427 88.1244 170.42 89.3559 171.645 89.3559H193.051C194.275 89.3559 195.268 88.1244 195.268 86.6052V79.3487C195.268 77.8295 194.275 76.5979 193.051 76.5979Z" fill="black"/>
<path d="M171.645 76.5979H193.05C194.275 76.5979 195.268 75.3663 195.268 73.8471V66.5906C195.268 65.0714 194.275 63.8399 193.05 63.8399H171.645C170.42 63.8399 169.427 65.0714 169.427 66.5906V73.8471C169.427 75.3663 170.42 76.5979 171.645 76.5979Z" fill="#475B72"/>
<path d="M145.804 76.5979H167.209C168.434 76.5979 169.427 75.3663 169.427 73.8471V66.5906C169.427 65.0714 168.434 63.8399 167.209 63.8399H145.804C144.579 63.8399 143.586 65.0714 143.586 66.5906V73.8471C143.586 75.3663 144.579 76.5979 145.804 76.5979Z" fill="#475B72"/>
<path opacity="0.1" d="M145.804 76.5979H167.209C168.434 76.5979 169.427 75.3663 169.427 73.8471V66.5906C169.427 65.0714 168.434 63.8399 167.209 63.8399H145.804C144.579 63.8399 143.586 65.0714 143.586 66.5906V73.8471C143.586 75.3663 144.579 76.5979 145.804 76.5979Z" fill="black"/>
<path d="M119.963 76.5979H141.368C142.593 76.5979 143.586 75.3663 143.586 73.8471V66.5906C143.586 65.0714 142.593 63.8399 141.368 63.8399H119.963C118.738 63.8399 117.745 65.0714 117.745 66.5906V73.8471C117.745 75.3663 118.738 76.5979 119.963 76.5979Z" fill="#475B72"/>
<path d="M94.1216 76.5979H115.527C116.752 76.5979 117.745 75.3663 117.745 73.8471V66.5906C117.745 65.0714 116.752 63.8399 115.527 63.8399H94.1216C92.8967 63.8399 91.9038 65.0714 91.9038 66.5906V73.8471C91.9038 75.3663 92.8967 76.5979 94.1216 76.5979Z" fill="#475B72"/>
<path opacity="0.1" d="M94.1216 76.5979H115.527C116.752 76.5979 117.745 75.3663 117.745 73.8471V66.5906C117.745 65.0714 116.752 63.8399 115.527 63.8399H94.1216C92.8967 63.8399 91.9038 65.0714 91.9038 66.5906V73.8471C91.9038 75.3663 92.8967 76.5979 94.1216 76.5979Z" fill="black"/>
<path d="M68.2805 76.5979H89.686C90.9109 76.5979 91.9038 75.3663 91.9038 73.8471V66.5906C91.9038 65.0714 90.9109 63.8399 89.686 63.8399H68.2805C67.0557 63.8399 66.0627 65.0714 66.0627 66.5906V73.8471C66.0627 75.3663 67.0557 76.5979 68.2805 76.5979Z" fill="#475B72"/>
<path d="M42.4395 76.5979H63.8449C65.0698 76.5979 66.0627 75.3663 66.0627 73.8471V66.5906C66.0627 65.0714 65.0698 63.8399 63.8449 63.8399H42.4395C41.2146 63.8399 40.2217 65.0714 40.2217 66.5906V73.8471C40.2217 75.3663 41.2146 76.5979 42.4395 76.5979Z" fill="#475B72"/>
<path opacity="0.1" d="M42.4395 76.5979H63.8449C65.0698 76.5979 66.0627 75.3663 66.0627 73.8471V66.5906C66.0627 65.0714 65.0698 63.8399 63.8449 63.8399H42.4395C41.2146 63.8399 40.2217 65.0714 40.2217 66.5906V73.8471C40.2217 75.3663 41.2146 76.5979 42.4395 76.5979Z" fill="black"/>
<path d="M63.8449 51.0818H42.4395C41.2146 51.0818 40.2217 52.3133 40.2217 53.8325V61.0891C40.2217 62.6083 41.2146 63.8398 42.4395 63.8398H63.8449C65.0698 63.8398 66.0628 62.6083 66.0628 61.0891V53.8325C66.0628 52.3133 65.0698 51.0818 63.8449 51.0818Z" fill="#475B72"/>
<path d="M89.686 51.0818H68.2806C67.0557 51.0818 66.0627 52.3133 66.0627 53.8325V61.0891C66.0627 62.6083 67.0557 63.8398 68.2806 63.8398H89.686C90.9109 63.8398 91.9038 62.6083 91.9038 61.0891V53.8325C91.9038 52.3133 90.9109 51.0818 89.686 51.0818Z" fill="#475B72"/>
<path opacity="0.1" d="M89.686 51.0818H68.2806C67.0557 51.0818 66.0627 52.3133 66.0627 53.8325V61.0891C66.0627 62.6083 67.0557 63.8398 68.2806 63.8398H89.686C90.9109 63.8398 91.9038 62.6083 91.9038 61.0891V53.8325C91.9038 52.3133 90.9109 51.0818 89.686 51.0818Z" fill="black"/>
<path d="M115.527 51.0818H94.1216C92.8968 51.0818 91.9038 52.3133 91.9038 53.8325V61.0891C91.9038 62.6083 92.8968 63.8398 94.1216 63.8398H115.527C116.752 63.8398 117.745 62.6083 117.745 61.0891V53.8325C117.745 52.3133 116.752 51.0818 115.527 51.0818Z" fill="#475B72"/>
<path d="M141.368 51.0818H119.963C118.738 51.0818 117.745 52.3133 117.745 53.8325V61.0891C117.745 62.6083 118.738 63.8398 119.963 63.8398H141.368C142.593 63.8398 143.586 62.6083 143.586 61.0891V53.8325C143.586 52.3133 142.593 51.0818 141.368 51.0818Z" fill="#475B72"/>
<path opacity="0.1" d="M141.368 51.0818H119.963C118.738 51.0818 117.745 52.3133 117.745 53.8325V61.0891C117.745 62.6083 118.738 63.8398 119.963 63.8398H141.368C142.593 63.8398 143.586 62.6083 143.586 61.0891V53.8325C143.586 52.3133 142.593 51.0818 141.368 51.0818Z" fill="black"/>
<path d="M167.209 51.0818H145.804C144.579 51.0818 143.586 52.3133 143.586 53.8325V61.0891C143.586 62.6083 144.579 63.8398 145.804 63.8398H167.209C168.434 63.8398 169.427 62.6083 169.427 61.0891V53.8325C169.427 52.3133 168.434 51.0818 167.209 51.0818Z" fill="#475B72"/>
<path d="M193.051 51.0818H171.645C170.42 51.0818 169.427 52.3133 169.427 53.8325V61.0891C169.427 62.6083 170.42 63.8398 171.645 63.8398H193.051C194.275 63.8398 195.268 62.6083 195.268 61.0891V53.8325C195.268 52.3133 194.275 51.0818 193.051 51.0818Z" fill="#475B72"/>
<path opacity="0.1" d="M193.051 51.0818H171.645C170.42 51.0818 169.427 52.3133 169.427 53.8325V61.0891C169.427 62.6083 170.42 63.8398 171.645 63.8398H193.051C194.275 63.8398 195.268 62.6083 195.268 61.0891V53.8325C195.268 52.3133 194.275 51.0818 193.051 51.0818Z" fill="black"/>
<path d="M193.05 8.5791H169.638C168.413 8.5791 167.42 9.81066 167.42 11.3299V19.5759C167.42 21.0951 168.413 22.3267 169.638 22.3267H193.05C194.275 22.3267 195.268 21.0951 195.268 19.5759V11.3299C195.268 9.81066 194.275 8.5791 193.05 8.5791Z" fill="url(#paint0_linear)"/>
<path d="M170.641 21.8318L192.047 21.8318C193.272 21.8318 194.265 20.6002 194.265 19.081V11.8245C194.265 10.3053 193.272 9.07376 192.047 9.07376L170.641 9.07376C169.416 9.07376 168.424 10.3053 168.424 11.8245V19.081C168.424 20.6002 169.416 21.8318 170.641 21.8318Z" fill="#475B72"/>
<path d="M145.804 51.0818L167.209 51.0818C168.434 51.0818 169.427 49.8502 169.427 48.331V41.0745C169.427 39.5554 168.434 38.3238 167.209 38.3238H145.804C144.579 38.3238 143.586 39.5554 143.586 41.0745V48.331C143.586 49.8502 144.579 51.0818 145.804 51.0818Z" fill="#475B72"/>
<path opacity="0.1" d="M145.804 51.0818L167.209 51.0818C168.434 51.0818 169.427 49.8502 169.427 48.331V41.0745C169.427 39.5554 168.434 38.3238 167.209 38.3238H145.804C144.579 38.3238 143.586 39.5554 143.586 41.0745V48.331C143.586 49.8502 144.579 51.0818 145.804 51.0818Z" fill="black"/>
<path d="M119.963 51.0818L141.368 51.0818C142.593 51.0818 143.586 49.8502 143.586 48.331V41.0745C143.586 39.5554 142.593 38.3238 141.368 38.3238H119.963C118.738 38.3238 117.745 39.5554 117.745 41.0745V48.331C117.745 49.8502 118.738 51.0818 119.963 51.0818Z" fill="#475B72"/>
<path d="M94.1216 51.0818L115.527 51.0818C116.752 51.0818 117.745 49.8502 117.745 48.331V41.0745C117.745 39.5554 116.752 38.3238 115.527 38.3238H94.1216C92.8967 38.3238 91.9038 39.5554 91.9038 41.0745V48.331C91.9038 49.8502 92.8967 51.0818 94.1216 51.0818Z" fill="#475B72"/>
<path opacity="0.1" d="M94.1216 51.0818L115.527 51.0818C116.752 51.0818 117.745 49.8502 117.745 48.331V41.0745C117.745 39.5554 116.752 38.3238 115.527 38.3238H94.1216C92.8967 38.3238 91.9038 39.5554 91.9038 41.0745V48.331C91.9038 49.8502 92.8967 51.0818 94.1216 51.0818Z" fill="black"/>
<path d="M68.2805 51.0818L89.686 51.0818C90.9109 51.0818 91.9038 49.8502 91.9038 48.331V41.0745C91.9038 39.5554 90.9109 38.3238 89.686 38.3238H68.2805C67.0557 38.3238 66.0627 39.5554 66.0627 41.0745V48.331C66.0627 49.8502 67.0557 51.0818 68.2805 51.0818Z" fill="#475B72"/>
<path d="M42.4395 51.0818L63.8449 51.0818C65.0698 51.0818 66.0627 49.8502 66.0627 48.331V41.0745C66.0627 39.5554 65.0698 38.3238 63.8449 38.3238H42.4395C41.2146 38.3238 40.2217 39.5554 40.2217 41.0745V48.331C40.2217 49.8502 41.2146 51.0818 42.4395 51.0818Z" fill="#475B72"/>
<path opacity="0.1" d="M42.4395 51.0818L63.8449 51.0818C65.0698 51.0818 66.0627 49.8502 66.0627 48.331V41.0745C66.0627 39.5554 65.0698 38.3238 63.8449 38.3238H42.4395C41.2146 38.3238 40.2217 39.5554 40.2217 41.0745V48.331C40.2217 49.8502 41.2146 51.0818 42.4395 51.0818Z" fill="black"/>
<path d="M125.191 202C194.333 202 250.383 186.188 250.383 166.682C250.383 147.177 194.333 131.364 125.191 131.364C56.0501 131.364 0 147.177 0 166.682C0 186.188 56.0501 202 125.191 202Z" fill="#F5F5F5"/>
<path d="M28.5883 150.831C28.5883 150.831 30.8463 141.369 28.1668 134.401C27.0312 131.489 26.6887 128.198 27.1909 125.023C27.4388 123.517 27.7974 122.044 28.2622 120.62" stroke="#535461" stroke-width="2" stroke-miterlimit="10"/>
<path d="M26.6013 116.219C26.6013 117.38 28.2948 120.744 28.2948 120.744C28.2948 120.744 29.9883 117.38 29.9883 116.219C29.9883 115.662 29.8098 115.128 29.4923 114.734C29.1747 114.34 28.7439 114.119 28.2948 114.119C27.8457 114.119 27.4149 114.34 27.0973 114.734C26.7797 115.128 26.6013 115.662 26.6013 116.219Z" fill="#475B72"/>
<path d="M23.8013 122.645C24.3031 123.619 27.2058 125.299 27.2058 125.299C27.2058 125.299 27.1531 121.335 26.6439 120.361C26.3985 119.897 26.0149 119.572 25.577 119.458C25.1391 119.343 24.6825 119.448 24.3069 119.75C23.9313 120.052 23.6673 120.526 23.5726 121.068C23.4778 121.611 23.5601 122.178 23.8013 122.645Z" fill="#475B72"/>
<path d="M23.9244 133.623C24.7599 134.146 27.9386 133.785 27.9386 133.785C27.9386 133.785 26.2802 130.396 25.4448 129.873C25.0452 129.636 24.5866 129.603 24.1674 129.78C23.7481 129.957 23.4016 130.331 23.2021 130.822C23.0025 131.312 22.9659 131.88 23.1 132.404C23.2341 132.928 23.5282 133.365 23.9194 133.623H23.9244Z" fill="#475B72"/>
<path d="M25.5249 141.903C26.2775 142.594 29.4637 142.905 29.4637 142.905C29.4637 142.905 28.2896 139.218 27.5395 138.527C27.1773 138.232 26.7377 138.12 26.3111 138.215C25.8845 138.309 25.5034 138.603 25.2462 139.036C24.989 139.468 24.8754 140.007 24.9286 140.54C24.9818 141.074 25.1979 141.562 25.5324 141.903H25.5249Z" fill="#475B72"/>
<path d="M30.761 125.523C30.0911 126.332 26.9651 127.169 26.9651 127.169C26.9651 127.169 27.7303 123.32 28.4001 122.502C28.5596 122.31 28.748 122.158 28.9547 122.056C29.1613 121.954 29.3821 121.904 29.6045 121.908C29.8269 121.912 30.0464 121.97 30.2507 122.079C30.4549 122.188 30.6398 122.346 30.7948 122.544C30.9499 122.742 31.0719 122.975 31.1541 123.232C31.2363 123.488 31.277 123.762 31.2739 124.038C31.2707 124.313 31.2238 124.586 31.1358 124.839C31.0478 125.092 30.9204 125.322 30.761 125.514V125.523Z" fill="#475B72"/>
<path d="M32.5347 135.229C31.6992 135.751 28.5205 135.391 28.5205 135.391C28.5205 135.391 30.1789 132.002 31.0143 131.479C31.4124 131.256 31.8646 131.233 32.2763 131.414C32.688 131.595 33.0274 131.966 33.2236 132.45C33.4199 132.934 33.4577 133.493 33.3294 134.011C33.201 134.529 32.9163 134.965 32.5347 135.229Z" fill="#475B72"/>
<path d="M33.2121 144.975C32.4594 145.666 29.2732 145.977 29.2732 145.977C29.2732 145.977 30.4473 142.289 31.1975 141.599C31.5596 141.303 31.9992 141.192 32.4258 141.286C32.8524 141.381 33.2335 141.675 33.4907 142.107C33.7479 142.54 33.8615 143.078 33.8083 143.612C33.7551 144.145 33.539 144.633 33.2045 144.975H33.2121Z" fill="#475B72"/>
<path d="M149.773 97.2036C149.773 97.2036 158.025 107.438 153.366 122.623C148.707 137.808 161.351 163.075 161.351 163.075C161.351 163.075 161.216 163.051 160.965 162.995C144.018 159.27 135.598 135.229 145.021 117.374C148.524 110.733 151.401 102.948 149.773 97.2036Z" fill="#475B72"/>
<path opacity="0.2" d="M149.773 97.2036C149.773 97.2036 158.025 107.438 153.366 122.623C148.707 137.808 161.351 163.075 161.351 163.075C161.351 163.075 161.216 163.051 160.965 162.995C144.018 159.27 135.598 135.229 145.021 117.374C148.524 110.733 151.401 102.948 149.773 97.2036Z" fill="black"/>
<path d="M149.773 97.2036C149.773 97.2036 154.432 109.747 149.773 119.981C145.114 130.216 148.975 158.934 161.359 163.06" stroke="#535461" stroke-miterlimit="10"/>
<path d="M135.079 138.593C135.079 138.593 144.494 136.726 145.352 147.2C146.21 157.674 163.456 159.114 163.456 159.114L163.133 159.382C148.892 170.976 135.284 166.766 137.332 151.372C138.094 145.65 138.027 139.896 135.079 138.593Z" fill="#475B72"/>
<path opacity="0.2" d="M135.079 138.593C135.079 138.593 144.494 136.726 145.352 147.2C146.21 157.674 163.456 159.114 163.456 159.114L163.133 159.382C148.892 170.976 135.284 166.766 137.332 151.372C138.094 145.65 138.027 139.896 135.079 138.593Z" fill="#F5F5F5"/>
<path d="M135.079 138.593C135.079 138.593 142.387 140.581 141.787 148.824C141.188 157.067 152.641 166.947 163.456 159.114" stroke="#535461" stroke-miterlimit="10"/>
<path d="M206.711 162.684C206.711 162.684 192.737 159.217 189.009 154.593C185.28 149.969 168.511 141.882 166.647 147.66C164.783 153.439 141.494 173.086 157.344 176.552C173.195 180.019 194.611 181.173 199.27 178.864C203.929 176.556 206.711 162.684 206.711 162.684Z" fill="#A8A8A8"/>
<path opacity="0.2" d="M157.345 174.405C173.183 177.872 194.611 179.026 199.27 176.717C202.817 174.956 205.291 166.502 206.257 162.565L206.724 162.687C206.724 162.687 203.929 176.553 199.27 178.868C194.611 181.183 173.178 180.022 157.345 176.556C152.774 175.554 151.466 173.204 151.958 170.23C152.327 172.168 153.93 173.659 157.345 174.405Z" fill="black"/>
<path d="M234.986 8.76604C234.737 7.99627 234.34 7.31368 233.829 6.77765C230.079 2.5395 224.015 3.82464 219.358 1.23258C218.285 0.635129 217.186 -0.192588 216.022 0.0345667C214.396 0.345738 212.883 2.64841 211.465 1.62776L211.566 2.01051L211.465 1.94516L212.509 5.88459C212.911 7.39688 213.332 8.95274 214.11 10.213C212.958 11.4584 212.077 13.0422 211.546 14.8193C211.016 16.5964 210.853 18.5102 211.073 20.3855C211.293 22.2608 211.888 24.0378 212.805 25.5539C213.722 27.0699 214.93 28.2767 216.32 29.0638C216.37 29.1944 216.418 29.3282 216.466 29.462L216.599 29.5305C216.907 30.4117 217.138 31.3319 217.286 32.275C216.079 32.4835 213.974 34.1421 211.907 36.5816L207.772 36.4105C205.098 36.2998 202.51 35.2083 200.336 33.2739L187.953 22.2429C187.07 22.3506 186.239 22.8065 185.582 23.5436C184.046 21.5583 182.742 19.4983 182.852 18.2537C182.852 18.2537 177.097 4.89506 175.004 11.5728C172.912 18.2505 178.928 25.2643 178.928 25.2643L182.744 31.3975C182.594 32.4729 182.498 33.559 182.458 34.6493C187.167 41.3301 203.645 47.3731 203.645 47.3731L206.214 47.5287L206.23 47.6842C206.071 48.5205 205.994 49.377 205.999 50.2358C205.999 50.3603 205.999 50.4879 205.999 50.6186C205.999 50.7493 205.999 50.7897 205.999 50.8738C206.129 61.5283 207.306 94.1266 207.306 94.1266C207.534 93.999 207.772 93.8839 208.013 93.7749L207.83 96.672C207.83 96.672 196.844 98.5794 188.735 102.398C180.627 106.216 180.366 110.668 180.366 110.668V149.957C178.05 151.432 174.395 153.38 172.518 152.331C170.481 151.205 169.365 152.151 169.161 153.137C169.123 153.332 169.123 153.536 169.161 153.731C169.179 153.819 169.205 153.904 169.239 153.984V154.002C169.276 154.084 169.323 154.16 169.377 154.226C170.162 155.182 187.165 163.449 191.089 162.177C191.21 162.137 191.329 162.087 191.445 162.027C191.483 162.009 191.515 161.984 191.553 161.962C191.59 161.94 191.698 161.878 191.766 161.828C191.834 161.778 191.844 161.763 191.881 161.732C191.919 161.701 191.999 161.635 192.055 161.582C192.11 161.529 192.127 161.501 192.162 161.461C192.198 161.421 192.265 161.352 192.31 161.29C192.356 161.228 192.376 161.196 192.408 161.15C192.441 161.103 192.499 161.025 192.539 160.957C192.579 160.888 192.594 160.854 192.624 160.804C192.654 160.755 192.704 160.661 192.739 160.587C192.775 160.512 192.787 160.481 192.81 160.425C192.832 160.369 192.88 160.266 192.913 160.182C192.945 160.098 192.953 160.073 192.97 160.017C192.988 159.961 193.033 159.84 193.061 159.75C193.088 159.659 193.091 159.641 193.108 159.585C193.126 159.529 193.163 159.389 193.186 159.273C193.186 159.221 193.209 159.168 193.221 159.115C193.244 159.006 193.269 158.9 193.289 158.804C193.289 158.754 193.306 158.704 193.314 158.654C193.334 158.536 193.354 158.418 193.369 158.299C193.369 158.256 193.369 158.209 193.387 158.166C193.404 158.038 193.419 157.907 193.432 157.78V157.668C193.444 157.528 193.457 157.388 193.467 157.248V157.161C193.477 157.009 193.485 156.858 193.49 156.706V156.644C193.49 156.482 193.49 156.32 193.49 156.159V156.127C193.485 154.23 193.317 152.339 192.988 150.486L193.974 117.026C199.112 117.125 204.25 116.89 209.368 116.322L209.93 132.292C209.93 132.292 209.93 142.788 212.808 147.558C215.271 151.64 218.116 169.698 218.884 174.823C217.828 177.312 215.806 180.424 212.283 180.318C212.283 180.318 205.657 179.608 206.031 181.874C206.042 181.933 206.056 181.991 206.074 182.048C206.095 182.113 206.119 182.177 206.147 182.238C206.174 182.297 206.204 182.356 206.24 182.418L206.26 182.456C206.297 182.521 206.34 182.589 206.388 182.661V182.677C206.433 182.742 206.48 182.807 206.533 182.873L206.578 182.929C206.638 183.003 206.699 183.078 206.769 183.156C210.168 186.974 230.048 187.609 230.048 187.609V187.522C230.048 187.497 230.048 187.466 230.048 187.431C230.048 186.327 229.918 180.533 228.729 176.17H229.005C229.005 176.17 226.127 144.045 223.774 140.23C223.774 140.23 223.149 123.29 224.559 112.675L224.81 112.557C231.403 109.502 231.872 101.977 231.193 96.451C232.447 96.9489 233.18 97.2881 233.18 97.2881C233.18 97.2881 233.157 97.0485 233.114 96.6222L233.18 96.6533C233.18 96.6533 233.054 95.642 232.846 94.0675C232.374 89.7328 231.461 82.1589 230.488 78.5836C230.329 77.7963 230.179 77.1242 230.041 76.617C229.479 74.4685 229.093 72.2552 228.889 70.0108C228.623 67.1016 228.488 64.1761 228.485 61.2482C228.507 57.3362 228.748 53.4309 229.208 49.5606C229.607 46.1813 229.961 42.3352 229.936 39.6498C229.963 38.712 229.91 37.7732 229.778 36.8493C229.429 34.8671 227.886 33.5788 226.283 32.7574C226.18 32.7045 226.074 32.6609 225.969 32.6111C226.009 31.8612 226.059 31.0086 226.125 30.1217C226.317 30.2868 226.534 30.4018 226.763 30.4596C226.992 30.5173 227.228 30.5167 227.457 30.4578C228.147 30.2711 228.641 29.5585 229.08 28.9019C231.398 25.3701 233.779 21.689 234.67 17.3015C235.03 15.3421 235.198 13.3362 235.172 11.327C235.172 11.217 235.172 11.1071 235.172 10.9971C235.214 10.2457 235.152 9.49076 234.986 8.76604Z" fill="url(#paint1_linear)"/>
<path d="M213.879 25.9828C213.879 25.9828 217.391 32.5174 216.639 35.6292C215.886 38.7409 224.918 36.8738 224.918 36.8738C224.918 36.8738 225.169 24.7382 226.925 21.9376C228.681 19.1371 213.879 25.9828 213.879 25.9828Z" fill="#F7C4A7"/>
<path d="M190.672 30.1837C190.672 30.1837 183.396 22.7156 183.647 19.9151C183.647 19.9151 178.128 6.84587 176.121 13.3805C174.114 19.9151 179.884 26.7608 179.884 26.7608L186.909 38.2742L190.672 30.1837Z" fill="#F7C4A7"/>
<path d="M183.271 147.34C183.271 147.34 176.497 152.63 173.737 151.074C170.978 149.518 169.974 152.007 170.727 152.941C171.479 153.874 187.787 161.965 191.55 160.72C195.313 159.475 193.399 149.281 193.399 149.281L183.271 147.34Z" fill="#535461"/>
<path d="M219.148 170.055C219.148 170.055 217.517 178.612 211.872 178.457C211.872 178.457 203.342 177.523 206.603 181.257C209.865 184.991 228.932 185.614 228.932 185.614C228.932 185.614 228.932 172.856 225.42 170.055C221.907 167.255 219.148 170.055 219.148 170.055Z" fill="#535461"/>
<path d="M208.861 109.688L209.614 131.47C209.614 131.47 209.614 141.739 212.374 146.406C215.133 151.074 218.395 174.412 218.395 174.412H227.929C227.929 174.412 225.169 142.983 222.911 139.249C222.911 139.249 221.907 111.555 225.42 105.332L208.861 109.688Z" fill="#575988"/>
<path opacity="0.1" d="M208.861 109.688L209.614 131.47C209.614 131.47 209.614 141.739 212.374 146.406C215.133 151.074 218.395 174.412 218.395 174.412H227.929C227.929 174.412 225.169 142.983 222.911 139.249C222.911 139.249 221.907 111.555 225.42 105.332L208.861 109.688Z" fill="black"/>
<path d="M228.681 90.0842C228.681 90.0842 234.451 107.199 223.914 112.177C213.377 117.156 194.31 116.534 194.31 116.534L193.306 152.63C193.306 152.63 181.515 154.497 181.264 149.829V110.31C181.264 110.31 181.515 105.954 189.292 102.22C197.07 98.4858 207.607 96.6188 207.607 96.6188L208.109 88.5283L228.681 90.0842Z" fill="#575988"/>
<path opacity="0.1" d="M219.436 33.703C221.44 33.4278 223.468 33.7831 225.332 34.7361C226.87 35.5389 228.342 36.7991 228.684 38.7377C229.08 41.0342 228.641 46.1841 228.137 50.5436C227.329 57.3754 227.226 64.3071 227.831 71.1711C228.082 74.0308 228.445 76.5233 228.935 77.6342C230.44 81.057 231.945 97.238 231.945 97.238C231.945 97.238 215.387 89.4587 207.108 94.1262C207.108 94.1262 205.979 62.2312 205.853 51.8069C205.755 43.7351 214.007 34.5369 216.767 34.2257C218.382 34.0453 217.828 33.9115 219.436 33.703Z" fill="black"/>
<path d="M219.436 33.0807C221.44 32.8055 223.468 33.1608 225.332 34.1138C226.87 34.9166 228.342 36.1768 228.684 38.1154C229.08 40.4119 228.641 45.5617 228.137 49.9213C227.329 56.7531 227.226 63.6847 227.831 70.5488C228.026 72.743 228.396 74.9079 228.935 77.0118C230.063 81.2126 231.945 96.6156 231.945 96.6156C231.945 96.6156 215.387 88.8363 207.108 93.5039C207.108 93.5039 205.979 61.6089 205.853 51.1846C205.755 43.1128 214.007 33.9146 216.767 33.6034C218.382 33.423 217.828 33.2891 219.436 33.0807Z" fill="#E14B5A"/>
<path opacity="0.1" d="M223.914 50.2542L206.102 49.0095C206.102 49.0095 204.968 38.1777 207.539 38.2897L225.169 39.0521C225.169 39.0521 228.932 44.6531 223.914 50.2542Z" fill="black"/>
<path d="M223.914 49.6319L203.593 48.3872C203.593 48.3872 187.787 42.475 183.271 35.9404C183.271 35.9404 183.522 24.427 188.54 23.8047L200.409 34.5992C202.483 36.4864 204.968 37.5555 207.539 37.6674L225.169 38.4297C225.169 38.4297 228.932 44.0308 223.914 49.6319Z" fill="#E14B5A"/>
<path opacity="0.1" d="M224.792 27.383C225.091 24.4331 226.17 23.4529 226.925 22.2487C228.681 19.4481 213.879 26.2939 213.879 26.2939C214.644 27.7517 215.315 29.2822 215.886 30.8712C217.066 31.5456 218.35 31.8949 219.649 31.895C221.822 31.895 223.232 28.9793 224.792 27.383Z" fill="black"/>
<path d="M219.649 31.5838C224.637 31.5838 228.681 26.5684 228.681 20.3816C228.681 14.1948 224.637 9.17944 219.649 9.17944C214.661 9.17944 210.617 14.1948 210.617 20.3816C210.617 26.5684 214.661 31.5838 219.649 31.5838Z" fill="#F7C4A7"/>
<path opacity="0.1" d="M213.946 12.531C212.986 11.2272 212.521 9.49086 212.085 7.80743L211.081 3.95201C212.441 4.94776 213.891 2.70733 215.452 2.39616C216.568 2.17522 217.624 2.98427 218.653 3.56616C223.119 6.0991 228.939 4.84196 232.532 8.98988C233.023 9.51732 233.403 10.1847 233.641 10.9347C233.807 11.6415 233.874 12.378 233.841 13.1129C233.871 15.0769 233.713 17.0384 233.372 18.9567C232.519 23.2478 230.236 26.8511 228.011 30.3051C227.589 30.9617 227.115 31.6587 226.453 31.8423C225.161 32.2002 224.162 30.47 223.663 28.9515C223.002 26.9393 222.514 24.8459 222.208 22.7063C222.078 21.8008 221.975 20.8673 221.611 20.0676C220.833 18.3593 218.916 16.7412 217.752 15.4156C216.588 14.09 215.015 13.978 213.946 12.531Z" fill="black"/>
<path d="M213.946 12.2197C212.986 10.9159 212.521 9.17958 212.085 7.49615L211.081 3.64073C212.441 4.63648 213.891 2.39605 215.452 2.08488C216.568 1.86395 217.624 2.67299 218.653 3.25488C223.119 5.78782 228.939 4.53068 232.532 8.6786C233.023 9.20604 233.403 9.87341 233.641 10.6234C233.807 11.3302 233.874 12.0667 233.841 12.8016C233.871 14.7657 233.713 16.7271 233.372 18.6454C232.519 22.9365 230.236 26.5398 228.011 29.9938C227.589 30.6504 227.115 31.3474 226.453 31.531C225.161 31.8889 224.162 30.1588 223.663 28.6402C223.002 26.6281 222.514 24.5347 222.208 22.395C222.078 21.4895 221.975 20.556 221.611 19.7563C220.833 18.048 218.916 16.4299 217.752 15.1043C216.588 13.7787 215.015 13.6667 213.946 12.2197Z" fill="#632652"/>
<path d="M222.033 23.649C222.448 23.649 222.785 22.7434 222.785 21.6264C222.785 20.5093 222.448 19.6038 222.033 19.6038C221.617 19.6038 221.28 20.5093 221.28 21.6264C221.28 22.7434 221.617 23.649 222.033 23.649Z" fill="#F7C4A7"/>
<path opacity="0.1" d="M226.549 75.6147C226.549 75.6147 226.047 77.4818 223.538 77.1706C221.029 76.8594 213.753 76.2371 213.753 77.1706" fill="black"/>
<path opacity="0.5" d="M206.603 180.946C206.152 180.429 205.926 180.013 205.873 179.648C205.808 180.053 206.009 180.582 206.603 181.257C209.865 184.991 228.932 185.614 228.932 185.614C228.932 185.614 228.932 185.505 228.932 185.302C228.809 185.299 209.855 184.668 206.603 180.946Z" fill="white"/>
<path opacity="0.5" d="M191.55 160.098C187.787 161.342 171.479 153.252 170.727 152.318C170.626 152.192 170.555 152.035 170.518 151.864C170.475 152.05 170.471 152.248 170.508 152.436C170.544 152.625 170.62 152.799 170.727 152.941C171.479 153.874 187.787 161.965 191.55 160.72C193.487 160.079 193.918 157.07 193.883 154.297C193.846 156.88 193.341 159.5 191.55 160.098Z" fill="white"/>
<path d="M125.966 156.749C126.066 156.749 126.162 156.7 126.233 156.613C126.303 156.525 126.343 156.406 126.343 156.283C126.343 156.159 126.303 156.04 126.233 155.953C126.162 155.865 126.066 155.816 125.966 155.816C125.867 155.816 125.771 155.865 125.7 155.953C125.63 156.04 125.59 156.159 125.59 156.283C125.59 156.406 125.63 156.525 125.7 156.613C125.771 156.7 125.867 156.749 125.966 156.749Z" fill="#67647E"/>
<path d="M22.9534 148.494C22.9534 148.494 32.3164 148.136 35.1363 145.644C37.9562 143.151 49.5371 140.176 50.237 144.172C50.937 148.167 64.3091 164.049 53.7293 164.168C43.1496 164.286 29.1703 162.126 26.3529 159.998C23.5354 157.87 22.9534 148.494 22.9534 148.494Z" fill="#A8A8A8"/>
<path opacity="0.2" d="M53.9276 162.765C43.3578 162.87 29.3685 160.723 26.551 158.595C24.406 156.974 23.5404 151.161 23.267 148.479H22.9534C22.9534 148.479 23.5455 157.845 26.3629 159.97C29.1803 162.096 43.1696 164.261 53.7294 164.168C56.7801 164.137 57.8338 162.793 57.7761 160.798C57.3622 161.99 56.1981 162.743 53.9276 162.765Z" fill="black"/>
<path d="M237.377 178.351H258.782C260.007 178.351 261 177.12 261 175.6V168.344C261 166.825 260.007 165.593 258.782 165.593H237.377C236.152 165.593 235.159 166.825 235.159 168.344V175.6C235.159 177.12 236.152 178.351 237.377 178.351Z" fill="#475B72"/>
<path opacity="0.1" d="M237.377 178.351H258.782C260.007 178.351 261 177.12 261 175.6V168.344C261 166.825 260.007 165.593 258.782 165.593H237.377C236.152 165.593 235.159 166.825 235.159 168.344V175.6C235.159 177.12 236.152 178.351 237.377 178.351Z" fill="black"/>
<path d="M258.782 153.457H237.377C236.152 153.457 235.159 154.689 235.159 156.208V163.465C235.159 164.984 236.152 166.215 237.377 166.215H258.782C260.007 166.215 261 164.984 261 163.465V156.208C261 154.689 260.007 153.457 258.782 153.457Z" fill="#475B72"/>
<path d="M237.377 153.457H258.782C260.007 153.457 261 152.226 261 150.707V143.45C261 141.931 260.007 140.699 258.782 140.699H237.377C236.152 140.699 235.159 141.931 235.159 143.45V150.707C235.159 152.226 236.152 153.457 237.377 153.457Z" fill="#475B72"/>
<path opacity="0.1" d="M237.377 153.457H258.782C260.007 153.457 261 152.226 261 150.707V143.45C261 141.931 260.007 140.699 258.782 140.699H237.377C236.152 140.699 235.159 141.931 235.159 143.45V150.707C235.159 152.226 236.152 153.457 237.377 153.457Z" fill="black"/>
<path d="M258.782 127.941H237.377C236.152 127.941 235.159 129.173 235.159 130.692V137.949C235.159 139.468 236.152 140.699 237.377 140.699H258.782C260.007 140.699 261 139.468 261 137.949V130.692C261 129.173 260.007 127.941 258.782 127.941Z" fill="#475B72"/>
</g>
<defs>
<linearGradient id="paint0_linear" x1="181.344" y1="22.3267" x2="181.344" y2="8.5791" gradientUnits="userSpaceOnUse">
<stop stop-color="#808080" stop-opacity="0.25"/>
<stop offset="0.54" stop-color="#808080" stop-opacity="0.12"/>
<stop offset="1" stop-color="#808080" stop-opacity="0.1"/>
</linearGradient>
<linearGradient id="paint1_linear" x1="58669" y1="136661" x2="58669" y2="23530.4" gradientUnits="userSpaceOnUse">
<stop stop-color="#808080" stop-opacity="0.25"/>
<stop offset="0.54" stop-color="#808080" stop-opacity="0.12"/>
<stop offset="1" stop-color="#808080" stop-opacity="0.1"/>
</linearGradient>
<clipPath id="clip0">
<rect width="261" height="202" fill="white"/>
</clipPath>
</defs>
</svg>
