<svg width="261" height="202" viewBox="0 0 261 202" fill="none" xmlns="http://www.w3.org/2000/svg">
<g clip-path="url(#clip0)">
<g opacity="0.7">
<path opacity="0.7" d="M102.25 108.343L102.072 108.3V101.367C108.958 99.6379 115.195 95.8952 120.012 90.6014C124.828 85.3077 128.012 78.695 129.17 71.5813H129.258C130.999 71.5813 132.409 68.8908 132.409 65.5745C132.409 63.516 131.866 61.7029 131.039 60.62C131.163 59.352 131.227 58.0665 131.229 56.7638C131.234 51.5757 130.204 46.4404 128.201 41.6688C126.197 36.8971 123.262 32.5883 119.573 29.0031C119.067 26.4397 118.163 23.9742 116.896 21.6987C114.21 16.8883 109.741 11.8817 111.563 6.6664L99.763 7.89352L99.6544 -0.00915527C95.9724 0.662695 94.4302 5.00058 92.2452 8.08986C86.9908 15.5201 76.4459 16.554 69.4713 22.3398C67.1022 24.3063 61.7724 30.2855 62.7744 34.2061C58.087 40.7614 55.5678 48.6599 55.5795 56.7638C55.5795 58.0645 55.6428 59.3499 55.7696 60.62C54.9427 61.7029 54.3994 63.516 54.3994 65.5745C54.3994 68.8939 55.8118 71.5813 57.5502 71.5813H57.6377C58.7961 78.695 61.9803 85.3077 66.7965 90.6014C71.6127 95.8952 77.8498 99.6379 84.7364 101.367V108.3L84.5583 108.343C80.4961 107.861 39.4995 104.68 48.4902 173.215L54.0041 193.88L55.2324 193.83C55.3932 195.904 56.2704 197.852 57.7086 199.331C59.1468 200.811 61.0534 201.725 63.091 201.913C65.1286 202.1 67.1658 201.549 68.8422 200.357C70.5186 199.165 71.726 197.408 72.2509 195.398C80.0585 195.371 88.8771 195.346 93.3769 195.346C97.8768 195.346 106.71 195.374 114.503 195.398C115.019 197.419 116.225 199.187 117.904 200.389C119.584 201.59 121.628 202.146 123.674 201.958C125.719 201.77 127.632 200.849 129.072 199.361C130.512 197.872 131.386 195.912 131.537 193.83L132.765 193.88L138.279 173.215C147.312 104.68 106.312 107.861 102.25 108.343Z" fill="url(#paint0_linear)"/>
</g>
<path d="M194.845 191.787H0V198.5H194.845V191.787Z" fill="#E0E0E0"/>
<path d="M186.588 198.503H8.25708V201.248H186.588V198.503Z" fill="#E0E0E0"/>
<path opacity="0.1" d="M186.588 198.503H8.25708V199.417H186.588V198.503Z" fill="black"/>
<path opacity="0.1" d="M58.3682 192.3C58.3682 192.3 84.5131 192.195 93.4042 192.195C102.295 192.195 128.44 192.3 128.44 192.3V188.431H58.3682V192.3Z" fill="black"/>
<path d="M128.443 191.523C128.443 191.523 102.298 191.419 93.4073 191.419C84.5163 191.419 58.3713 191.523 58.3713 191.523V142.641C58.3713 133.196 62.0622 124.138 68.6321 117.459C75.202 110.78 84.1127 107.028 93.4043 107.027C98.0056 107.026 102.562 107.947 106.813 109.737C111.064 111.526 114.927 114.15 118.18 117.457C121.434 120.764 124.015 124.69 125.776 129.011C127.537 133.332 128.443 137.964 128.443 142.641V191.523Z" fill="#475B72"/>
<path d="M90.0875 89.2212H96.7271C98.0686 89.2212 99.3552 89.7629 100.304 90.7271C101.252 91.6914 101.785 92.9992 101.785 94.3628V108.576C101.785 110.835 100.903 113.001 99.3314 114.598C97.7602 116.195 95.6293 117.092 93.4073 117.092C91.1853 117.092 89.0543 116.195 87.4832 114.598C85.912 113.001 85.0293 110.835 85.0293 108.576V94.3628C85.0293 92.9992 85.5622 91.6914 86.5108 90.7271C87.4594 89.7629 88.746 89.2212 90.0875 89.2212Z" fill="#FDB797"/>
<path opacity="0.1" d="M85.0261 102.124C90.5294 103.501 96.2789 103.501 101.782 102.124V89.9943H85.0261V102.124Z" fill="black"/>
<path d="M93.407 95.415C113.599 95.415 129.967 78.7764 129.967 58.2516C129.967 37.7268 113.599 21.0881 93.407 21.0881C73.2154 21.0881 56.8469 37.7268 56.8469 58.2516C56.8469 78.7764 73.2154 95.415 93.407 95.415Z" fill="#333333"/>
<path d="M93.4073 102.382C112.757 102.382 128.443 86.437 128.443 66.7678C128.443 47.0986 112.757 31.1536 93.4073 31.1536C74.0575 31.1536 58.3713 47.0986 58.3713 66.7678C58.3713 86.437 74.0575 102.382 93.4073 102.382Z" fill="#FDB797"/>
<path d="M70.2713 24.975C77.0105 19.3824 87.2053 18.3853 92.2846 11.2005C94.3972 8.21553 95.8851 4.02184 99.4463 3.37146L99.5519 11.0103L110.957 9.82C109.197 14.8573 113.516 19.7076 116.112 24.3553C118.026 27.7929 119.072 31.659 119.157 35.608C115.197 38.0255 110.287 35.3871 105.878 33.979C101.592 32.6108 97.038 32.4696 92.5472 32.3408C90.2444 32.2733 87.9145 32.212 85.6661 32.7243C83.6954 33.1752 81.8514 34.0557 79.9862 34.8503C76.9531 36.1418 67.374 41.0135 64.5552 37.8721C61.3621 34.3103 67.6698 27.1347 70.2713 24.975Z" fill="#333333"/>
<path opacity="0.1" d="M72.1757 48.9071C74.0348 50.0513 76.2198 50.5023 78.3717 50.803C87.3461 52.049 96.4846 51.0053 104.963 47.7658C106.352 51.3429 109.741 53.8002 113.344 54.969C116.948 56.1379 120.796 56.1962 124.577 56.2422C125.41 56.2422 126.304 56.2422 126.992 55.7728C128.676 54.6162 127.861 51.9687 126.88 50.1587L122 41.1762C120.557 38.5194 119.072 35.8075 116.839 33.795C114.038 31.2764 110.32 30.0952 106.653 29.3498C97.9863 27.597 89.0383 27.9004 80.5054 30.2364C71.385 32.7305 59.6691 41.213 72.1757 48.9071Z" fill="black"/>
<path d="M72.1757 48.1339C74.0348 49.2782 76.2198 49.7292 78.3717 50.0298C87.3461 51.2759 96.4846 50.2322 104.963 46.9927C106.352 50.5698 109.741 53.0271 113.344 54.1959C116.948 55.3648 120.796 55.423 124.577 55.4691C125.41 55.4691 126.304 55.4691 126.992 54.9997C128.676 53.8431 127.861 51.1956 126.88 49.3856L122 40.3908C120.557 37.734 119.072 35.0221 116.839 33.0096C114.038 30.491 110.32 29.3098 106.653 28.5644C97.9863 26.8116 89.0383 27.115 80.5054 29.451C71.385 31.9543 59.6691 40.4368 72.1757 48.1339Z" fill="#333333"/>
<path d="M128.063 72.5752C129.747 72.5752 131.111 69.9751 131.111 66.7678C131.111 63.5605 129.747 60.9604 128.063 60.9604C126.38 60.9604 125.015 63.5605 125.015 66.7678C125.015 69.9751 126.38 72.5752 128.063 72.5752Z" fill="#FDB797"/>
<path d="M58.7516 72.5752C60.435 72.5752 61.7997 69.9751 61.7997 66.7678C61.7997 63.5605 60.435 60.9604 58.7516 60.9604C57.0681 60.9604 55.7034 63.5605 55.7034 66.7678C55.7034 69.9751 57.0681 72.5752 58.7516 72.5752Z" fill="#FDB797"/>
<path d="M101.643 108.137C101.643 108.137 145.96 101.121 136.821 170.803L131.491 190.778L116.256 190.164C116.256 190.164 126.159 166.938 120.065 151.452C113.972 135.965 101.643 108.137 101.643 108.137Z" fill="#475B72"/>
<path d="M85.1681 108.137C85.1681 108.137 40.8638 101.121 49.9903 170.803L55.32 190.778L70.5549 190.164C70.5549 190.164 60.6529 166.938 66.7462 151.452C72.8396 135.965 85.1681 108.137 85.1681 108.137Z" fill="#475B72"/>
<path opacity="0.1" d="M65.9857 138.843C65.9857 138.843 62.9375 162.772 68.2703 169.739L65.9857 138.843Z" fill="black"/>
<path opacity="0.1" d="M120.826 139.457C120.826 139.457 123.874 162.772 118.541 169.739L120.826 139.457Z" fill="black"/>
<path d="M121.951 198.622C126.578 198.622 130.329 194.809 130.329 190.106C130.329 185.403 126.578 181.59 121.951 181.59C117.324 181.59 113.573 185.403 113.573 190.106C113.573 194.809 117.324 198.622 121.951 198.622Z" fill="#FDB797"/>
<path d="M64.8599 198.622C69.487 198.622 73.2379 194.809 73.2379 190.106C73.2379 185.403 69.487 181.59 64.8599 181.59C60.2329 181.59 56.4819 185.403 56.4819 190.106C56.4819 194.809 60.2329 198.622 64.8599 198.622Z" fill="#FDB797"/>
<g opacity="0.7">
<path opacity="0.7" d="M114.524 141.426H72.2449C68.6879 141.426 65.8044 144.357 65.8044 147.973V184.578C65.8044 188.194 68.6879 191.125 72.2449 191.125H114.524C118.081 191.125 120.964 188.194 120.964 184.578V147.973C120.964 144.357 118.081 141.426 114.524 141.426Z" fill="url(#paint1_linear)"/>
</g>
<path d="M113.501 142.346H73.2651C69.7082 142.346 66.8247 145.277 66.8247 148.893V183.658C66.8247 187.273 69.7082 190.204 73.2651 190.204H113.501C117.058 190.204 119.942 187.273 119.942 183.658V148.893C119.942 145.277 117.058 142.346 113.501 142.346Z" fill="#E0E0E0"/>
<path d="M83.2517 186.808V183.216C83.253 183.164 83.2433 183.113 83.2232 183.065C83.203 183.018 83.1729 182.975 83.135 182.941C83.0971 182.906 83.0523 182.881 83.0036 182.866C82.955 182.851 82.9037 182.847 82.8533 182.854C82.3508 182.864 81.8552 182.975 81.3956 183.182V186.799H80.3997V180.148H81.3926V182.344C81.9021 182.142 82.4423 182.031 82.9891 182.016C83.8945 182.016 84.2295 182.581 84.2295 183.354V186.805H83.2456L83.2517 186.808ZM86.0916 184.636C86.1248 185.839 86.3572 186.075 87.0845 186.075C87.6735 186.047 88.2534 185.916 88.7988 185.688L88.9648 186.446C88.3588 186.747 87.6955 186.911 87.0212 186.925C85.3643 186.925 85.1077 186.004 85.1077 184.526C85.0884 183.78 85.1717 183.036 85.3552 182.314C85.9969 182.091 86.6725 181.987 87.3501 182.007C88.7082 182.007 89.1217 182.774 89.1217 184.112V184.624H86.1037L86.0916 184.636ZM87.3501 182.86C86.9622 182.853 86.5744 182.881 86.1912 182.943C86.1246 183.27 86.0882 183.603 86.0826 183.937H88.1529C88.1529 183.237 88.0292 182.86 87.3501 182.86ZM90.9717 183.188V186.805H89.9788V182.734C90.6932 182.356 91.4778 182.136 92.2815 182.087V182.927C91.8351 182.944 91.394 183.032 90.9747 183.188H90.9717ZM94.8951 186.925C93.4133 186.925 92.7433 186.185 92.7433 184.492C92.7433 182.7 93.6276 182.019 94.8951 182.019C96.377 182.019 97.047 182.759 97.047 184.452C97.047 186.244 96.1597 186.925 94.8951 186.925ZM94.8951 182.86C94.1346 182.86 93.7121 183.305 93.7121 184.492C93.7121 185.787 94.0682 186.075 94.8951 186.075C95.6557 186.075 96.0782 185.636 96.0782 184.452C96.0782 183.157 95.7221 182.863 94.8951 182.863V182.86ZM101.837 186.805H100.669C100.393 186.016 99.9724 185.287 99.4282 184.658H98.9061V186.805H97.9343V180.148H98.9272V183.967H99.3919C99.8867 183.43 100.282 182.806 100.56 182.127H101.677C101.314 182.878 100.836 183.565 100.261 184.164C100.886 184.98 101.421 185.862 101.858 186.796L101.837 186.805ZM103.699 186.922C102.793 186.922 102.458 186.357 102.458 185.584V182.139H103.442V185.716C103.441 185.768 103.45 185.819 103.471 185.867C103.491 185.914 103.521 185.956 103.559 185.991C103.597 186.025 103.642 186.051 103.69 186.066C103.739 186.081 103.79 186.085 103.84 186.078C104.36 186.069 104.872 185.957 105.349 185.75V182.139H106.354V186.195C105.555 186.669 104.646 186.921 103.72 186.925L103.699 186.922ZM103.261 178.451H83.472C83.0691 178.452 82.6699 178.372 82.2974 178.216C81.9249 178.06 81.5863 177.831 81.301 177.542C81.0156 177.253 80.7892 176.909 80.6345 176.531C80.4799 176.153 80.4001 175.747 80.3997 175.338V148.878C80.3997 148.468 80.479 148.063 80.6331 147.685C80.7872 147.307 81.013 146.963 81.2978 146.674C81.5825 146.384 81.9205 146.155 82.2925 145.998C82.6646 145.842 83.0633 145.761 83.466 145.761H103.273C103.677 145.759 104.077 145.839 104.451 145.995C104.824 146.15 105.164 146.38 105.45 146.669C105.736 146.959 105.964 147.303 106.119 147.682C106.274 148.061 106.354 148.467 106.354 148.878V175.338C106.354 175.747 106.275 176.153 106.121 176.531C105.967 176.909 105.74 177.253 105.455 177.543C105.17 177.832 104.832 178.062 104.46 178.218C104.087 178.375 103.688 178.455 103.285 178.455L103.261 178.451Z" fill="#6762A6"/>
<path d="M96.6636 173.957V160.974C96.6636 160.974 97.4936 157.866 86.4296 162.244C86.4084 162.299 86.4084 150.237 86.4084 150.237L90.0301 150.215V157.943C90.0301 157.943 100.152 153.891 100.152 161.011V173.951H96.6636V173.957ZM98.7249 154.891H94.886C96.2652 153.176 97.5147 150.237 97.5147 150.237H101.48C101.48 150.237 100.801 152.151 98.7189 154.891H98.7249ZM86.4748 173.933V166.539L90.1115 170.236L86.4748 173.933Z" fill="white"/>
<g opacity="0.7">
<path opacity="0.7" d="M254.559 118.724H212.28C208.723 118.724 205.84 121.655 205.84 125.271V161.876C205.84 165.492 208.723 168.423 212.28 168.423H254.559C258.116 168.423 261 165.492 261 161.876V125.271C261 121.655 258.116 118.724 254.559 118.724Z" fill="url(#paint2_linear)"/>
</g>
<path d="M253.537 119.645H213.301C209.744 119.645 206.86 122.576 206.86 126.191V160.956C206.86 164.571 209.744 167.502 213.301 167.502H253.537C257.093 167.502 259.977 164.571 259.977 160.956V126.191C259.977 122.576 257.093 119.645 253.537 119.645Z" fill="#E0E0E0"/>
<path d="M223.936 139.96C223.925 140.401 223.979 140.841 224.096 141.267C224.224 141.63 224.378 141.984 224.558 142.325C224.622 142.425 224.658 142.542 224.66 142.662C224.651 142.753 224.622 142.84 224.574 142.916C224.527 142.993 224.462 143.057 224.386 143.104L223.48 143.718C223.37 143.798 223.239 143.844 223.103 143.85C222.938 143.839 222.783 143.765 222.668 143.644C222.474 143.431 222.3 143.2 222.149 142.954C222.004 142.705 221.847 142.426 221.703 142.086C221.193 142.73 220.545 143.248 219.809 143.6C219.072 143.951 218.267 144.127 217.453 144.114C216.246 144.114 215.271 143.761 214.562 143.055C213.833 142.246 213.45 141.176 213.495 140.08C213.541 138.984 214.013 137.951 214.806 137.208C215.688 136.444 216.859 136.061 218.347 136.061C218.86 136.064 219.372 136.103 219.88 136.177C220.414 136.251 220.963 136.367 221.543 136.499V135.425C221.543 134.309 221.31 133.53 220.864 133.076C220.417 132.621 219.62 132.401 218.506 132.401C217.981 132.4 217.457 132.464 216.946 132.591C216.415 132.72 215.894 132.887 215.386 133.091C215.221 133.165 215.052 133.229 214.879 133.281C214.804 133.306 214.725 133.32 214.646 133.324C214.444 133.324 214.345 133.177 214.345 132.87V132.149C214.329 131.971 214.364 131.792 214.447 131.634C214.556 131.5 214.695 131.395 214.852 131.327C215.428 131.036 216.036 130.813 216.662 130.664C217.399 130.472 218.157 130.378 218.917 130.385C220.637 130.385 221.896 130.781 222.705 131.575C223.513 132.37 223.912 133.573 223.912 135.189V139.96H223.936ZM218.069 142.193C218.576 142.188 219.078 142.098 219.557 141.929C220.087 141.742 220.561 141.418 220.93 140.987C221.163 140.716 221.332 140.394 221.422 140.046C221.521 139.627 221.57 139.197 221.567 138.766V138.153C221.128 138.045 220.684 137.962 220.236 137.904C219.785 137.846 219.332 137.816 218.878 137.815C217.909 137.815 217.2 138.006 216.723 138.404C216.361 138.671 216.095 139.051 215.963 139.485C215.832 139.919 215.843 140.385 215.994 140.813C216.145 141.24 216.429 141.606 216.803 141.856C217.177 142.105 217.62 142.225 218.066 142.196L218.069 142.193ZM229.676 143.779C229.481 143.799 229.286 143.747 229.127 143.632C228.976 143.473 228.872 143.274 228.825 143.058L225.43 131.707C225.364 131.517 225.32 131.319 225.3 131.118C225.293 131.07 225.297 131.02 225.311 130.973C225.326 130.926 225.351 130.883 225.385 130.848C225.418 130.812 225.459 130.785 225.505 130.768C225.55 130.751 225.599 130.745 225.647 130.75H227.063C227.262 130.725 227.464 130.778 227.627 130.897C227.777 131.057 227.882 131.255 227.929 131.471L230.343 141.199L232.598 131.471C232.627 131.255 232.723 131.054 232.872 130.897C233.046 130.789 233.248 130.738 233.452 130.75H234.608C234.812 130.728 235.017 130.78 235.187 130.897C235.338 131.053 235.435 131.254 235.462 131.471L237.746 141.316L240.248 131.471C240.298 131.256 240.402 131.058 240.55 130.897C240.718 130.789 240.916 130.737 241.114 130.75H242.457C242.507 130.743 242.557 130.748 242.604 130.763C242.651 130.779 242.694 130.806 242.729 130.842C242.764 130.878 242.791 130.921 242.806 130.969C242.822 131.017 242.827 131.068 242.82 131.118C242.816 131.198 242.806 131.277 242.789 131.354C242.766 131.48 242.732 131.603 242.687 131.723L239.204 143.074C239.161 143.291 239.056 143.49 238.902 143.647C238.739 143.754 238.547 143.805 238.353 143.794H237.109C236.905 143.817 236.7 143.764 236.53 143.647C236.379 143.486 236.283 143.279 236.255 143.058L234.016 133.582L231.789 143.043C231.755 143.262 231.66 143.467 231.514 143.632C231.343 143.746 231.139 143.798 230.935 143.779H229.676ZM248.249 144.175C247.499 144.176 246.751 144.087 246.022 143.911C245.444 143.791 244.885 143.593 244.359 143.322C244.173 143.233 244.018 143.09 243.912 142.911C243.856 142.781 243.826 142.642 243.825 142.5V141.751C243.825 141.445 243.939 141.297 244.156 141.297C244.245 141.297 244.332 141.312 244.416 141.34C244.504 141.371 244.633 141.429 244.778 141.487C245.289 141.716 245.822 141.889 246.369 142.003C246.935 142.119 247.511 142.178 248.089 142.178C248.824 142.222 249.556 142.054 250.202 141.693C250.437 141.549 250.63 141.343 250.762 141.098C250.894 140.853 250.96 140.577 250.953 140.297C250.958 140.108 250.926 139.92 250.86 139.744C250.793 139.567 250.692 139.406 250.564 139.269C250.141 138.904 249.641 138.643 249.103 138.506L246.993 137.843C245.937 137.505 245.158 137.005 244.682 136.343C244.217 135.733 243.963 134.985 243.96 134.214C243.948 133.644 244.082 133.082 244.35 132.582C244.608 132.109 244.963 131.697 245.391 131.376C245.843 131.029 246.355 130.77 246.9 130.612C247.488 130.44 248.098 130.356 248.711 130.364C249.034 130.361 249.358 130.38 249.679 130.422C250.011 130.465 250.316 130.526 250.618 130.584C250.92 130.643 251.182 130.732 251.442 130.821C251.652 130.887 251.854 130.975 252.046 131.085C252.216 131.172 252.365 131.298 252.48 131.453C252.574 131.596 252.62 131.766 252.61 131.937V132.628C252.61 132.934 252.495 133.097 252.278 133.097C252.085 133.075 251.899 133.016 251.729 132.922C250.855 132.529 249.908 132.334 248.952 132.348C248.287 132.308 247.623 132.45 247.03 132.76C246.809 132.893 246.629 133.085 246.509 133.316C246.389 133.546 246.335 133.806 246.351 134.066C246.347 134.262 246.383 134.455 246.458 134.635C246.533 134.815 246.645 134.977 246.785 135.109C247.255 135.488 247.796 135.762 248.376 135.916L250.428 136.579C251.469 136.916 252.221 137.386 252.667 137.99C253.108 138.582 253.342 139.306 253.331 140.049C253.338 140.639 253.209 141.224 252.954 141.754C252.697 142.257 252.337 142.697 251.898 143.046C251.42 143.423 250.875 143.703 250.292 143.868C249.622 144.077 248.925 144.18 248.225 144.175H248.249Z" fill="#252F3E"/>
<path d="M250.98 151.311C246.224 154.881 239.316 156.777 233.376 156.777C225.441 156.819 217.775 153.848 211.882 148.445C211.435 148.034 211.84 147.476 212.374 147.798C218.083 151.145 224.476 153.103 231.054 153.519C237.631 153.934 244.214 152.796 250.286 150.194C251.08 149.826 251.762 150.722 250.98 151.311Z" fill="#FF9900"/>
<path d="M252.96 149.025C252.357 148.23 248.943 148.642 247.395 148.835C246.933 148.893 246.861 148.482 247.28 148.172C249.996 146.233 254.463 146.792 254.985 147.439C255.507 148.086 254.84 152.654 252.296 154.802C251.907 155.139 251.53 154.964 251.693 154.523C252.281 153.078 253.567 149.801 252.96 149.025Z" fill="#FF9900"/>
<g opacity="0.7">
<path opacity="0.7" d="M221.663 35.2798H179.384C175.827 35.2798 172.944 38.2108 172.944 41.8265V78.4316C172.944 82.0473 175.827 84.9783 179.384 84.9783H221.663C225.22 84.9783 228.104 82.0473 228.104 78.4316V41.8265C228.104 38.2108 225.22 35.2798 221.663 35.2798Z" fill="url(#paint3_linear)"/>
</g>
<path d="M220.64 36.2002H180.404C176.847 36.2002 173.964 39.1313 173.964 42.7469V77.5113C173.964 81.127 176.847 84.058 180.404 84.058H220.64C224.197 84.058 227.081 81.127 227.081 77.5113V42.7469C227.081 39.1313 224.197 36.2002 220.64 36.2002Z" fill="#E0E0E0"/>
<path d="M193.131 72.5935L185.99 60.0155L193.131 47.4375H207.409L214.55 60.0155L207.409 72.5935H193.131Z" fill="#CAC9C2"/>
<path d="M200.516 65.7616C199.416 65.7616 198.34 65.4298 197.425 64.8082C196.509 64.1866 195.796 63.3031 195.375 62.2694C194.954 61.2357 194.843 60.0983 195.058 59.0009C195.273 57.9036 195.803 56.8956 196.581 56.1044C197.359 55.3133 198.351 54.7745 199.431 54.5562C200.51 54.3379 201.629 54.45 202.646 54.8781C203.663 55.3063 204.532 56.0314 205.144 56.9617C205.755 57.892 206.082 58.9857 206.082 60.1046C206.08 61.6044 205.493 63.0424 204.45 64.1029C203.406 65.1635 201.992 65.76 200.516 65.7616Z" fill="white"/>
<path d="M211.707 43.2377C211.445 42.8303 211.092 42.4911 210.678 42.2476C210.263 42.0041 209.798 41.863 209.32 41.8357H191.725C191.247 41.863 190.782 42.0041 190.367 42.2476C189.952 42.4911 189.6 42.8303 189.338 43.2377L184.207 52.2877C184.157 52.8547 184.268 53.4243 184.527 53.929L188.007 59.9757L194.218 49.0665H213.853C214.364 49.087 214.86 49.2459 215.289 49.5267L211.716 43.2346" fill="#5072AA"/>
<path d="M184.421 51.895L184.195 52.2908C184.145 52.8577 184.256 53.4273 184.515 53.9321L187.994 59.9787L189.844 56.7268L184.412 51.892" fill="#4D6796"/>
<path d="M192.177 46.4897C191.965 46.4897 191.757 46.4257 191.581 46.3056C191.404 46.1856 191.266 46.0151 191.185 45.8155C191.103 45.6159 191.082 45.3964 191.124 45.1845C191.165 44.9726 191.267 44.778 191.418 44.6253C191.568 44.4726 191.759 44.3685 191.968 44.3264C192.176 44.2843 192.392 44.3059 192.589 44.3886C192.785 44.4712 192.953 44.6112 193.071 44.7908C193.189 44.9704 193.252 45.1816 193.252 45.3976C193.252 45.6872 193.139 45.965 192.937 46.1698C192.736 46.3746 192.462 46.4897 192.177 46.4897ZM209.772 45.3976C209.774 45.5303 209.75 45.6621 209.701 45.7853C209.653 45.9086 209.581 46.0209 209.49 46.1159C209.398 46.2109 209.29 46.2868 209.17 46.339C209.05 46.3913 208.921 46.4191 208.79 46.4207C208.659 46.4223 208.53 46.3977 208.409 46.3484C208.287 46.2991 208.177 46.226 208.083 46.1333C207.895 45.946 207.787 45.6902 207.784 45.4221C207.784 45.4221 207.784 45.4037 207.784 45.3976C207.784 45.1295 207.888 44.8724 208.075 44.6828C208.261 44.4932 208.514 44.3867 208.778 44.3867C209.042 44.3867 209.295 44.4932 209.481 44.6828C209.668 44.8724 209.772 45.1295 209.772 45.3976Z" fill="white"/>
<path d="M220.502 58.7272L215.277 49.5238C214.847 49.243 214.352 49.0841 213.841 49.0636H206.764L212.89 60.0402L203.196 77.4501C202.949 77.8525 202.607 78.1858 202.2 78.4195H209.323C209.801 78.3922 210.266 78.2511 210.681 78.0076C211.096 77.764 211.448 77.4249 211.71 77.0175L220.508 61.5281C220.724 61.0939 220.836 60.6142 220.836 60.1277C220.836 59.6411 220.724 59.1614 220.508 58.7272" fill="#CC4232"/>
<path d="M215.516 49.944L215.28 49.5299C214.85 49.2489 214.354 49.0901 213.844 49.0697H206.763L208.607 52.3707L215.516 49.941" fill="#B23F33"/>
<path d="M208.777 75.7443C208.564 75.7443 208.356 75.6802 208.18 75.5602C208.003 75.4402 207.865 75.2697 207.784 75.0701C207.703 74.8705 207.681 74.6509 207.723 74.4391C207.764 74.2272 207.867 74.0326 208.017 73.8799C208.167 73.7272 208.359 73.6231 208.567 73.581C208.775 73.5389 208.991 73.5605 209.188 73.6432C209.384 73.7258 209.552 73.8658 209.67 74.0454C209.788 74.225 209.851 74.4362 209.851 74.6522C209.851 74.9418 209.738 75.2196 209.536 75.4244C209.335 75.6292 209.062 75.7443 208.777 75.7443ZM217.133 61.1967C216.921 61.1967 216.713 61.1327 216.536 61.0127C216.36 60.8927 216.222 60.7221 216.141 60.5225C216.059 60.323 216.038 60.1034 216.08 59.8915C216.121 59.6797 216.223 59.4851 216.374 59.3323C216.524 59.1796 216.715 59.0756 216.924 59.0334C217.132 58.9913 217.348 59.0129 217.545 59.0956C217.741 59.1782 217.909 59.3182 218.027 59.4978C218.145 59.6774 218.208 59.8886 218.208 60.1046C218.208 60.3943 218.095 60.672 217.893 60.8768C217.692 61.0817 217.418 61.1967 217.133 61.1967Z" fill="white"/>
<path d="M194.344 71.0137L184.521 53.9322C184.262 53.4274 184.151 52.8578 184.201 52.2909L180.546 58.7333C180.33 59.1676 180.218 59.6473 180.218 60.1337C180.218 60.6202 180.33 61.0999 180.546 61.5342L189.35 77.0174C189.612 77.4243 189.965 77.7628 190.379 78.0058C190.794 78.2488 191.259 78.3894 191.737 78.4164H202.206C202.613 78.1826 202.955 77.8494 203.202 77.4469L206.788 71.0045H194.344" fill="#ECB02A"/>
<path d="M201.6 78.4194H202.203C202.61 78.1858 202.952 77.8525 203.199 77.45L206.785 71.0076H202.973L201.6 78.4133" fill="#C79732"/>
<path d="M192.178 75.7443C191.965 75.7443 191.757 75.6802 191.581 75.5602C191.404 75.4402 191.266 75.2697 191.185 75.0701C191.104 74.8705 191.082 74.6509 191.124 74.4391C191.165 74.2272 191.268 74.0326 191.418 73.8799C191.568 73.7272 191.76 73.6231 191.968 73.581C192.176 73.5389 192.392 73.5605 192.589 73.6432C192.785 73.7258 192.953 73.8658 193.071 74.0454C193.189 74.225 193.252 74.4362 193.252 74.6522C193.252 74.9418 193.139 75.2196 192.937 75.4244C192.736 75.6292 192.463 75.7443 192.178 75.7443ZM183.806 61.1967C183.593 61.1967 183.385 61.1327 183.209 61.0127C183.032 60.8927 182.894 60.7221 182.813 60.5225C182.732 60.323 182.71 60.1034 182.752 59.8915C182.793 59.6797 182.896 59.4851 183.046 59.3323C183.196 59.1796 183.388 59.0756 183.596 59.0334C183.804 58.9913 184.02 59.0129 184.217 59.0956C184.413 59.1782 184.581 59.3182 184.699 59.4978C184.817 59.6774 184.88 59.8886 184.88 60.1046C184.88 60.3943 184.767 60.672 184.565 60.8768C184.364 61.0817 184.091 61.1967 183.806 61.1967Z" fill="white"/>
</g>
<defs>
<linearGradient id="paint0_linear" x1="93.4041" y1="201.997" x2="93.4041" y2="4.32519e-05" gradientUnits="userSpaceOnUse">
<stop stop-color="#808080" stop-opacity="0.25"/>
<stop offset="0.54" stop-color="#808080" stop-opacity="0.12"/>
<stop offset="1" stop-color="#808080" stop-opacity="0.1"/>
</linearGradient>
<linearGradient id="paint1_linear" x1="17133.4" y1="31103.6" x2="17133.4" y2="23052.5" gradientUnits="userSpaceOnUse">
<stop stop-color="#808080" stop-opacity="0.25"/>
<stop offset="0.54" stop-color="#808080" stop-opacity="0.12"/>
<stop offset="1" stop-color="#808080" stop-opacity="0.1"/>
</linearGradient>
<linearGradient id="paint2_linear" x1="42867.7" y1="27403.2" x2="42867.7" y2="19352.1" gradientUnits="userSpaceOnUse">
<stop stop-color="#808080" stop-opacity="0.25"/>
<stop offset="0.54" stop-color="#808080" stop-opacity="0.12"/>
<stop offset="1" stop-color="#808080" stop-opacity="0.1"/>
</linearGradient>
<linearGradient id="paint3_linear" x1="36822.4" y1="13801.8" x2="36822.4" y2="5750.61" gradientUnits="userSpaceOnUse">
<stop stop-color="#808080" stop-opacity="0.25"/>
<stop offset="0.54" stop-color="#808080" stop-opacity="0.12"/>
<stop offset="1" stop-color="#808080" stop-opacity="0.1"/>
</linearGradient>
<clipPath id="clip0">
<rect width="261" height="202" fill="white"/>
</clipPath>
</defs>
</svg>
